<!DOCTYPE svg PUBLIC "-//W3C//DTD SVG 20010904//EN" "http://www.w3.org/TR/2001/REC-SVG-20010904/DTD/svg10.dtd">
<svg version="1.0" xmlns="http://www.w3.org/2000/svg" width="1100px" height="650px" viewBox="0 0 11000 6500" preserveAspectRatio="xMidYMid meet">
<g id="layer101" fill="#030303" stroke="none">
 <path d="M624 6478 c-12 -40 -19 -212 -12 -306 9 -113 47 -230 124 -383 55 -111 77 -187 114 -394 47 -265 126 -423 296 -591 74 -73 82 -95 93 -254 5 -66 29 -218 56 -353 l48 -238 -34 -36 c-19 -19 -86 -76 -149 -126 -63 -51 -117 -96 -119 -101 -2 -5 -19 -24 -36 -42 -36 -35 -111 -138 -143 -194 -11 -19 -36 -64 -57 -100 -76 -134 -93 -167 -123 -240 -17 -41 -38 -100 -46 -130 -57 -198 -76 -274 -86 -345 -6 -44 -16 -97 -21 -117 -10 -40 -13 -70 -24 -258 -14 -231 43 -625 126 -872 24 -72 102 -242 153 -333 171 -305 428 -625 724 -901 79 -74 150 -134 157 -134 7 0 18 -7 25 -15 11 -13 278 -15 2238 -15 l2225 0 51 37 c183 130 289 270 350 458 14 44 40 150 57 235 17 85 37 167 45 182 20 38 66 62 179 91 173 45 284 86 404 147 119 61 324 188 466 288 110 79 324 294 426 430 64 85 89 112 104 110 18 -3 20 -12 23 -118 2 -63 -2 -162 -9 -220 -32 -275 2 -462 129 -704 114 -216 317 -399 542 -488 208 -83 471 -60 808 69 62 24 127 43 145 43 40 0 460 -93 547 -122 36 -11 99 -34 140 -50 126 -50 260 -85 392 -103 l47 -6 0 934 0 934 -37 7 c-57 9 -248 7 -332 -5 -41 -5 -127 -16 -190 -25 -63 -8 -140 -19 -170 -24 -39 -7 -75 -7 -123 2 -51 8 -87 9 -145 0 -214 -31 -267 -26 -408 42 -188 90 -316 196 -451 371 -69 90 -265 288 -332 335 -68 50 -165 82 -246 83 -69 1 -330 -60 -960 -223 -104 -27 -212 -52 -240 -55 -27 -4 -57 -9 -65 -12 -8 -3 -26 -8 -40 -10 -14 -1 -41 -7 -60 -13 -19 -5 -75 -16 -125 -25 -49 -9 -106 -20 -125 -25 -19 -5 -42 -9 -50 -9 -8 0 -65 -7 -126 -17 -140 -21 -236 -14 -268 20 -12 13 -49 54 -82 92 -59 66 -163 176 -280 294 -29 30 -78 71 -109 90 -77 48 -141 132 -161 212 -9 34 -24 79 -34 98 -9 19 -20 52 -24 72 -4 20 -13 50 -21 65 -8 15 -15 35 -15 44 0 8 -16 64 -35 123 -19 59 -41 142 -49 184 -8 42 -29 149 -47 237 -29 147 -31 169 -24 275 11 167 13 186 25 245 l11 53 50 7 c35 5 79 25 153 69 242 146 416 332 416 447 0 46 30 85 73 94 95 21 214 92 311 189 104 103 298 319 357 397 64 85 248 333 296 399 45 62 143 226 143 239 0 8 -524 11 -1887 11 l-1888 0 -90 -25 c-72 -20 -113 -25 -206 -25 -107 0 -119 2 -153 25 l-37 25 -1284 0 -1284 0 -7 -22z m1148 -3789 c37 -70 179 -404 231 -539 47 -126 61 -248 34 -313 -27 -63 -104 -84 -183 -48 -79 36 -85 54 -120 358 -17 152 -20 236 -16 461 2 162 8 170 54 81z"/>
 <path d="M6189 3951 c-29 -29 -31 -36 -27 -83 6 -61 40 -98 89 -98 40 0 79 39 79 80 l0 30 -65 0 c-57 0 -65 2 -65 18 0 11 9 27 20 37 18 16 27 17 61 8 25 -6 42 -7 45 -1 10 17 -12 30 -60 35 -41 5 -48 2 -77 -26z m105 -99 c8 -14 -24 -52 -44 -52 -22 0 -50 26 -50 46 0 10 13 14 44 14 25 0 47 -4 50 -8z"/>
 <path d="M6600 3962 c-27 -22 -38 -98 -20 -141 6 -16 25 -35 40 -41 33 -14 86 -5 94 15 7 19 -13 30 -27 16 -34 -34 -77 3 -77 64 0 36 5 48 25 61 23 15 27 15 49 0 34 -22 48 0 16 26 -28 23 -71 23 -100 0z"/>
 <path d="M6791 3961 c-18 -18 -21 -33 -21 -101 0 -73 2 -80 20 -80 18 0 20 7 20 74 0 88 14 109 55 82 23 -15 25 -23 25 -86 0 -63 2 -70 20 -70 19 0 20 7 20 95 l0 95 -32 -1 c-18 0 -45 2 -60 6 -19 5 -31 2 -47 -14z"/>
 <path d="M7008 3973 c-10 -2 -18 -13 -18 -23 0 -16 4 -17 29 -7 58 22 89 -29 32 -53 -16 -6 -37 -21 -47 -31 -38 -42 17 -101 80 -85 41 10 33 33 -11 32 -32 -1 -38 2 -38 19 0 13 13 26 37 37 93 44 39 138 -64 111z"/>
 <path d="M7220 3973 c-49 -19 -70 -77 -50 -137 14 -42 43 -66 82 -66 36 0 77 38 80 75 l3 30 -67 3 c-74 3 -85 15 -48 52 22 22 51 26 80 10 22 -12 39 5 22 22 -12 12 -81 20 -102 11z m80 -125 c0 -17 -31 -48 -48 -48 -20 0 -52 29 -52 47 0 9 15 13 50 13 32 0 50 -4 50 -12z"/>
 <path d="M7863 3956 c-25 -21 -28 -31 -28 -81 0 -50 3 -60 28 -81 16 -14 41 -24 58 -24 40 0 79 39 79 80 l0 30 -65 0 c-57 0 -65 2 -65 18 0 43 45 60 109 41 26 -8 23 21 -4 31 -43 16 -82 12 -112 -14z m101 -104 c8 -14 -24 -52 -44 -52 -22 0 -50 26 -50 46 0 10 13 14 44 14 25 0 47 -4 50 -8z"/>
 <path d="M8716 3967 c-26 -19 -26 -75 -1 -93 10 -8 36 -14 57 -14 31 0 38 -4 38 -19 0 -32 -27 -47 -63 -33 -39 15 -57 0 -26 -22 29 -20 79 -21 105 -2 16 12 20 29 23 100 l3 85 -28 0 c-16 0 -42 3 -59 6 -19 4 -37 1 -49 -8z m75 -27 c22 -13 26 -60 5 -60 -27 0 -66 19 -66 33 0 15 20 37 33 37 4 0 17 -5 28 -10z"/>
 <path d="M8946 3967 c-13 -10 -19 -32 -23 -83 -4 -43 -11 -72 -19 -77 -19 -11 -18 -27 1 -27 9 0 15 -9 15 -25 0 -18 5 -25 20 -25 15 0 20 7 20 25 0 20 5 25 25 25 16 0 25 6 25 15 0 9 -9 15 -25 15 -24 0 -25 3 -25 59 0 54 16 91 33 75 3 -3 11 -3 17 1 8 5 8 11 -1 21 -14 18 -40 18 -63 1z"/>
 <path d="M9197 3962 c-12 -14 -17 -37 -17 -85 0 -53 -3 -67 -15 -67 -8 0 -15 -7 -15 -15 0 -8 7 -15 15 -15 9 0 15 -9 15 -25 0 -18 5 -25 20 -25 15 0 20 7 20 25 0 20 5 25 25 25 16 0 25 6 25 15 0 9 -9 15 -25 15 -26 0 -26 1 -23 68 3 63 4 67 26 64 18 -1 23 2 20 15 -5 25 -50 28 -71 5z"/>
 <path d="M9578 3961 c-48 -38 -50 -120 -3 -167 49 -49 135 -16 135 52 l0 34 -66 0 c-62 0 -65 1 -62 22 5 34 50 55 88 41 19 -7 32 -8 36 -1 10 16 -12 30 -58 35 -34 4 -49 0 -70 -16z m96 -109 c8 -13 -23 -52 -41 -52 -21 0 -53 29 -53 47 0 15 85 19 94 5z"/>
 <path d="M10040 3962 c-20 -16 -24 -31 -28 -100 -4 -78 -4 -82 17 -82 19 0 21 5 21 69 0 50 4 74 16 85 21 21 27 20 52 -7 18 -19 22 -35 22 -85 0 -48 3 -62 15 -62 12 0 15 17 15 95 0 78 -3 95 -15 95 -8 0 -15 -5 -15 -11 0 -5 -10 -3 -22 5 -29 21 -51 20 -78 -2z"/>
 <path d="M10263 3956 c-25 -21 -28 -31 -28 -81 0 -50 3 -60 28 -81 30 -26 66 -31 98 -14 25 14 26 45 2 35 -58 -25 -93 -3 -93 58 0 61 33 86 81 62 28 -15 29 -14 29 5 0 13 -10 24 -26 30 -39 15 -61 12 -91 -14z"/>
 <path d="M6370 3962 c0 -4 11 -24 25 -44 14 -20 25 -41 25 -45 0 -5 -11 -25 -25 -45 -30 -44 -31 -48 -6 -48 11 0 28 13 38 30 9 17 20 30 23 30 3 0 14 -13 23 -30 10 -17 27 -30 38 -30 18 0 17 3 -8 48 l-26 47 26 42 c32 51 32 53 8 53 -11 0 -29 -15 -42 -36 l-22 -36 -20 36 c-12 20 -29 36 -39 36 -10 0 -18 -3 -18 -8z"/>
 <path d="M7500 3875 c0 -78 3 -95 15 -95 8 0 15 4 15 10 0 5 14 1 30 -8 28 -16 32 -16 61 0 27 16 33 16 52 3 29 -20 53 -19 77 5 17 17 20 33 20 100 0 73 -2 80 -20 80 -18 0 -20 -7 -20 -74 0 -88 -14 -109 -55 -82 -23 15 -25 23 -25 86 0 56 -3 70 -15 70 -12 0 -15 -13 -15 -57 0 -101 -19 -129 -66 -98 -21 14 -24 23 -24 85 0 56 -3 70 -15 70 -12 0 -15 -17 -15 -95z"/>
 <path d="M8176 3886 c-31 -99 -31 -109 -9 -104 11 2 24 27 38 73 l22 70 12 -45 c23 -86 27 -95 46 -95 14 0 24 16 40 70 l21 70 18 -60 c24 -86 24 -85 41 -85 20 0 19 8 -11 106 -23 73 -29 84 -49 84 -20 0 -26 -10 -42 -62 l-20 -63 -18 63 c-15 52 -21 62 -40 62 -20 0 -26 -11 -49 -84z"/>
 <path d="M8470 3830 c0 -133 1 -140 20 -140 17 0 20 7 20 50 0 47 1 50 19 40 31 -16 66 -12 87 11 14 16 20 40 23 100 3 75 2 79 -18 79 -19 0 -21 -5 -21 -75 0 -65 -3 -76 -21 -85 -16 -9 -26 -8 -45 5 -22 14 -24 22 -24 85 0 63 -2 70 -20 70 -19 0 -20 -7 -20 -140z"/>
 <path d="M9320 3830 c0 -133 1 -140 20 -140 17 0 20 7 20 49 l0 49 30 -11 c25 -9 36 -9 58 4 26 14 27 19 30 102 2 73 0 87 -13 87 -12 0 -15 -14 -15 -69 0 -50 -4 -74 -16 -85 -19 -20 -24 -20 -52 0 -19 13 -22 24 -22 85 0 62 -2 69 -20 69 -19 0 -20 -7 -20 -140z"/>
 <path d="M9890 3891 c0 -70 -2 -79 -20 -84 -11 -3 -20 -10 -20 -15 0 -5 9 -12 20 -15 14 -4 20 -14 20 -34 0 -38 16 -53 57 -53 23 0 33 5 33 15 0 9 -9 15 -24 15 -16 0 -27 7 -31 20 -8 26 1 40 26 40 10 0 19 7 19 15 0 9 -9 15 -25 15 -25 0 -25 1 -25 80 0 64 -3 80 -15 80 -12 0 -15 -15 -15 -79z"/>
 <path d="M10430 3830 c0 -133 1 -140 20 -140 18 0 20 7 20 83 l1 82 32 -38 c21 -24 41 -37 57 -37 23 0 23 1 -14 39 l-39 40 37 49 c41 57 43 62 18 62 -10 0 -34 -21 -53 -46 l-34 -46 -3 46 c-3 38 -7 46 -23 46 -18 0 -19 -8 -19 -140z"/>
 </g>
<g id="layer102" fill="#898a89" stroke="none">
 <path d="M753 6488 c-19 -24 -43 -160 -43 -240 0 -118 24 -206 100 -368 38 -80 72 -157 75 -172 12 -49 30 -54 78 -22 48 33 53 36 167 97 307 164 686 256 1060 257 74 0 221 7 325 15 197 15 402 18 445 6 13 -4 46 -2 72 3 35 7 79 5 170 -7 68 -9 204 -24 303 -32 274 -24 498 -61 735 -120 118 -29 249 -58 290 -64 84 -11 179 -32 290 -61 41 -12 157 -32 258 -45 375 -50 727 -155 1048 -311 72 -35 141 -64 153 -64 40 0 131 38 201 85 99 66 364 349 501 535 184 250 338 480 339 508 0 19 -3340 17 -3390 -2 -19 -8 -74 -30 -122 -50 -163 -67 -249 -87 -398 -93 -126 -5 -138 -4 -185 18 -27 12 -75 49 -106 81 l-57 58 -1150 0 c-908 0 -1152 -3 -1159 -12z"/>
 <path d="M2260 5944 c-384 -19 -523 -39 -719 -104 -213 -70 -506 -215 -584 -288 -26 -25 -28 -31 -22 -77 19 -149 83 -336 149 -439 38 -59 139 -172 167 -186 13 -8 22 -6 36 8 77 78 178 134 328 180 547 169 515 164 1081 169 357 4 480 1 595 -11 217 -23 455 -90 537 -153 43 -32 99 -28 156 11 68 46 158 85 246 107 74 19 103 21 245 16 129 -4 177 -10 250 -30 220 -62 284 -101 300 -183 9 -50 21 -64 54 -64 22 0 322 -72 416 -100 82 -24 154 -39 188 -40 84 0 378 217 456 338 36 57 52 151 30 179 -16 19 -195 106 -324 156 -237 93 -590 182 -776 197 -153 12 -209 22 -324 60 -49 16 -153 40 -230 54 -77 14 -196 38 -265 55 -325 79 -703 130 -1005 137 -77 1 -194 7 -260 13 -152 14 -387 12 -725 -5z"/>
 <path d="M2340 5103 c-87 -8 -286 -43 -360 -63 -41 -12 -166 -50 -276 -86 -210 -67 -286 -105 -336 -169 -44 -56 -36 -241 23 -550 16 -88 34 -170 39 -183 9 -21 11 -22 39 -8 90 47 168 69 801 232 264 67 313 83 465 149 78 34 141 55 179 59 68 8 131 33 301 124 200 107 555 323 555 338 0 34 -215 106 -405 136 -114 18 -184 21 -555 23 -234 1 -445 1 -470 -2z"/>
 <path d="M4280 5071 c-86 -12 -159 -52 -700 -373 -297 -177 -395 -229 -525 -283 -132 -55 -125 -41 -180 -359 -27 -154 -68 -203 -215 -257 -145 -53 -468 -129 -780 -183 -115 -20 -153 -13 -158 28 -5 44 20 63 96 71 192 20 577 104 756 165 158 53 187 87 205 240 7 52 18 119 27 149 8 29 13 56 9 59 -3 3 -40 -7 -83 -22 -42 -16 -135 -45 -207 -66 -119 -35 -188 -54 -520 -142 -384 -101 -485 -137 -519 -182 -20 -26 -20 -27 3 -124 75 -323 196 -682 296 -882 79 -158 103 -211 226 -490 102 -233 127 -309 141 -438 24 -204 -22 -281 -184 -311 -38 -7 -68 -7 -93 0 -60 17 -62 2 -20 -98 77 -181 124 -261 202 -345 49 -53 54 -80 19 -103 -33 -22 -62 -8 -123 59 -125 137 -231 389 -283 675 -43 239 -60 443 -60 739 0 218 2 256 17 278 22 34 19 70 -13 145 -64 152 -167 484 -221 712 -8 38 -21 71 -28 74 -34 12 -274 -206 -360 -327 -64 -91 -187 -308 -228 -404 -70 -166 -141 -484 -159 -718 -22 -269 20 -616 104 -878 121 -373 374 -749 772 -1145 134 -133 194 -183 364 -305 l43 -30 801 2 801 3 43 125 c106 305 129 463 119 810 -10 351 -27 470 -110 769 -64 230 -115 378 -184 541 -85 199 -111 301 -119 475 -7 136 -8 140 -32 152 -14 7 -77 37 -140 67 -63 30 -180 93 -259 141 -79 48 -225 126 -325 174 -100 48 -189 95 -198 105 -36 36 -10 103 36 91 41 -12 344 -169 576 -300 287 -161 361 -193 507 -214 165 -25 335 -7 440 46 75 38 123 81 192 172 75 98 91 131 93 187 3 55 -10 68 -88 85 -62 14 -268 -1 -389 -27 -38 -9 -88 -17 -110 -17 -35 -2 -41 1 -49 26 -7 19 -7 33 0 44 19 30 137 59 359 87 124 16 257 46 360 82 39 13 120 31 180 39 224 31 324 71 421 170 140 143 154 292 33 372 -41 27 -42 27 -218 27 -206 -1 -384 -26 -521 -76 -105 -38 -129 -50 -204 -101 -86 -57 -155 -97 -170 -97 -19 0 -46 34 -46 58 0 17 26 39 113 95 161 105 200 123 329 156 157 41 249 52 480 60 l196 6 42 30 c66 47 110 127 117 213 l6 72 -36 34 c-44 41 -102 52 -231 43 -117 -7 -420 -112 -706 -244 -104 -48 -135 -57 -160 -43 -25 14 -26 52 -1 74 27 25 149 81 371 171 144 59 421 141 507 152 30 3 79 0 113 -7 73 -16 90 -6 90 52 0 55 -22 92 -67 110 -103 43 -142 57 -193 67 -69 15 -318 22 -390 12z"/>
 <path d="M5027 4788 c-2 -7 8 -35 23 -63 15 -27 31 -66 34 -87 13 -75 -45 -246 -106 -309 -44 -45 -46 -54 -17 -69 31 -17 77 -97 85 -147 17 -112 -42 -253 -148 -355 -47 -45 -68 -73 -64 -83 3 -8 12 -15 20 -15 26 0 240 -70 302 -99 75 -35 129 -83 199 -176 55 -73 102 -105 175 -120 19 -4 76 -25 125 -46 94 -41 110 -45 119 -30 4 5 -14 69 -38 143 -89 273 -143 477 -166 623 -6 39 -20 115 -32 170 -18 85 -20 120 -15 240 3 77 11 173 18 213 11 69 11 75 -8 93 -19 20 -171 65 -363 109 -99 23 -137 25 -143 8z"/>
 <path d="M4585 3593 c-161 -21 -385 -78 -385 -99 0 -7 10 -25 23 -39 l22 -26 85 20 c96 24 227 27 391 11 232 -23 411 -64 444 -100 18 -20 85 -29 85 -12 0 13 -83 93 -111 108 -52 26 -216 80 -364 120 -86 22 -123 26 -190 17z"/>
 <path d="M4385 3360 c-56 -8 -102 -29 -126 -56 -27 -31 -42 -65 -32 -75 9 -9 17 -7 128 30 69 23 200 47 329 61 84 9 105 14 95 25 -8 7 -219 25 -284 24 -33 -1 -83 -5 -110 -9z"/>
 <path d="M4850 3239 c-225 -17 -384 -47 -548 -104 -56 -19 -117 -35 -136 -35 -29 0 -39 -7 -75 -55 -116 -154 -294 -221 -559 -212 -75 3 -146 6 -157 8 -19 4 -20 -1 -18 -100 3 -152 33 -281 97 -423 106 -235 201 -548 282 -928 22 -103 28 -159 32 -320 3 -162 7 -201 22 -230 29 -55 91 -105 195 -156 57 -28 66 -29 195 -29 125 1 140 3 203 29 67 28 150 80 243 150 26 20 51 36 56 36 5 0 24 -11 42 -25 19 -14 62 -37 97 -51 53 -22 81 -26 164 -27 87 -1 113 4 200 32 121 40 295 126 390 194 92 65 161 127 325 287 323 315 511 434 840 529 24 7 25 10 24 81 -1 61 -8 91 -37 160 -72 178 -154 298 -316 465 -64 66 -174 181 -244 256 -144 155 -215 208 -362 269 -55 22 -125 52 -155 65 -206 88 -281 109 -455 130 -139 16 -181 17 -345 4z m540 -252 c194 -50 272 -114 274 -223 2 -74 -38 -95 -244 -129 -137 -23 -235 -43 -315 -65 -98 -26 -659 -150 -682 -150 -34 0 -178 -41 -191 -54 -10 -10 -11 -18 -1 -40 11 -22 10 -29 -4 -43 -28 -28 -73 -20 -136 24 -32 23 -84 52 -116 66 -32 14 -62 33 -66 43 -16 45 30 88 89 82 24 -3 28 4 56 77 17 44 39 95 49 112 21 40 92 109 132 130 56 30 333 122 459 153 161 40 254 49 446 45 124 -3 174 -8 250 -28z m-32 -473 c124 -31 138 -71 71 -213 -28 -60 -46 -119 -60 -196 -29 -157 -30 -159 -62 -163 -60 -7 -67 24 -42 169 14 82 29 131 72 242 22 58 15 66 -67 68 -87 2 -104 10 -108 48 -2 18 2 39 9 47 16 19 103 18 187 -2z m647 -374 c56 -27 104 -95 112 -158 4 -41 2 -52 -18 -76 -26 -29 -86 -44 -133 -32 -57 14 -126 103 -128 165 -2 57 53 120 106 121 11 0 38 -9 61 -20z m-1432 -278 c40 -38 75 -100 82 -147 6 -32 3 -45 -15 -68 -48 -61 -188 -17 -236 75 -20 39 -18 121 4 141 48 43 118 43 165 -1z m1756 -76 c26 -31 8 -68 -59 -123 -84 -69 -168 -109 -277 -133 -117 -26 -149 -26 -164 1 -18 34 3 66 48 77 194 46 247 68 316 131 69 62 111 77 136 47z m-1864 -396 c29 -17 75 -37 102 -45 54 -17 150 -20 186 -6 35 13 67 3 78 -26 21 -55 -31 -83 -153 -83 -120 0 -256 44 -320 104 -31 27 -33 38 -18 67 16 28 64 24 125 -11z"/>
 <path d="M4985 2914 c-168 -17 -280 -40 -440 -93 -196 -64 -287 -104 -317 -137 -36 -41 -88 -151 -88 -187 0 -46 1 -46 144 -7 61 16 212 50 336 74 124 25 311 66 415 91 105 26 249 57 320 71 166 32 167 32 184 43 44 29 -63 97 -199 127 -73 16 -274 26 -355 18z"/>
 <path d="M8400 2804 c-52 -13 -153 -40 -225 -59 -71 -19 -215 -55 -320 -80 -104 -25 -244 -59 -310 -76 -271 -67 -551 -121 -862 -165 -18 -3 -33 -9 -33 -13 0 -5 13 -25 29 -45 71 -89 201 -410 201 -496 0 -43 10 -50 77 -50 52 0 152 -32 293 -94 118 -52 140 -69 140 -106 0 -33 -20 -51 -85 -75 -77 -28 -214 -102 -275 -148 -66 -49 -139 -124 -190 -192 -20 -28 -44 -56 -53 -64 -10 -7 -17 -20 -17 -28 0 -18 27 -13 172 33 192 62 329 134 593 312 234 157 356 273 516 487 79 106 114 141 151 150 39 10 89 -10 131 -53 l37 -38 -10 -214 c-6 -118 -13 -256 -16 -306 -8 -110 10 -211 62 -346 104 -270 276 -459 524 -576 134 -63 280 -71 494 -27 104 22 286 86 299 106 7 12 -1 38 -33 102 -61 123 -65 193 -20 389 109 479 147 593 254 753 66 98 64 101 -70 96 -90 -2 -126 1 -188 18 -95 26 -129 43 -271 137 -142 93 -196 142 -297 268 -173 217 -294 334 -413 396 -72 38 -149 39 -285 4z"/>
 <path d="M10685 2051 c-27 -4 -113 -15 -190 -25 -229 -27 -265 -35 -337 -73 -84 -44 -155 -119 -201 -209 -40 -79 -96 -247 -126 -374 -11 -47 -35 -146 -53 -220 -45 -183 -45 -270 0 -357 32 -61 73 -103 124 -122 14 -5 106 -26 205 -46 244 -49 337 -75 484 -133 118 -47 193 -70 289 -88 112 -20 122 -17 118 37 -3 40 -4 41 -73 70 -38 17 -95 41 -125 54 -30 13 -86 37 -125 53 -182 75 -209 88 -222 109 -14 21 -14 26 1 48 9 14 23 25 32 25 15 0 69 -20 174 -65 189 -82 324 -134 331 -129 5 3 9 65 9 138 l0 133 -117 38 c-226 74 -261 93 -249 139 10 39 45 42 128 11 120 -44 206 -68 222 -62 14 6 16 35 16 216 0 242 10 221 -112 241 -88 14 -113 33 -102 74 8 34 42 42 106 27 27 -6 63 -11 79 -11 l29 0 0 244 c0 223 -2 244 -17 251 -27 10 -241 15 -298 6z"/>
 <path d="M6760 1710 c-89 -16 -246 -86 -390 -176 -116 -72 -205 -146 -405 -339 -176 -168 -225 -212 -310 -275 -134 -98 -334 -192 -506 -236 -129 -33 -234 -30 -349 11 -96 35 -151 31 -206 -13 -200 -158 -543 -175 -752 -37 -30 19 -57 35 -61 35 -5 0 -11 -42 -14 -92 -6 -100 -43 -269 -80 -370 -49 -129 -60 -164 -61 -188 l-1 -25 1150 0 1150 0 80 41 c102 52 144 81 228 156 154 136 218 265 267 533 17 90 37 183 45 206 15 42 100 189 139 242 145 193 266 304 413 379 101 51 106 70 29 106 -102 48 -238 64 -366 42z"/>
 </g>
<g id="layer103" fill="#e1e3dd" stroke="none">
 <path d="M2518 5955 c-2 -2 -64 -6 -138 -9 -134 -6 -261 -13 -395 -21 -112 -7 -294 -35 -345 -54 -14 -5 -56 -19 -95 -31 -38 -11 -79 -25 -90 -30 -11 -5 -56 -24 -100 -43 -99 -43 -240 -112 -280 -137 -16 -11 -39 -24 -51 -29 -11 -5 -35 -22 -53 -37 l-34 -28 7 -81 c9 -118 63 -286 129 -400 29 -50 91 -122 158 -182 l35 -32 55 50 c45 42 197 129 225 129 5 0 79 23 166 50 204 66 368 107 498 127 136 20 903 23 1080 4 203 -22 474 -101 545 -159 40 -33 79 -26 180 32 44 25 121 60 170 77 l90 31 190 -5 c166 -4 202 -8 282 -30 51 -15 100 -31 110 -36 10 -5 42 -20 71 -32 58 -25 92 -67 102 -128 5 -35 6 -36 80 -52 138 -31 284 -67 410 -103 69 -20 139 -36 156 -36 65 0 241 115 376 246 99 95 118 127 120 200 1 33 -2 66 -7 74 -24 39 -416 196 -625 250 -47 12 -114 31 -150 41 -93 27 -217 48 -355 59 -114 10 -248 39 -343 74 -24 9 -78 21 -120 26 -82 11 -208 37 -362 76 -201 50 -470 91 -710 110 -41 3 -82 7 -91 10 -8 2 -102 6 -208 9 -106 3 -198 8 -203 11 -10 6 -474 15 -480 9z"/>
 <path d="M4285 5069 c-55 -7 -111 -26 -165 -56 -147 -83 -257 -148 -270 -158 -8 -7 -40 -26 -70 -42 -69 -39 -196 -112 -358 -209 -177 -105 -248 -142 -385 -199 -40 -17 -76 -39 -86 -54 -23 -33 -47 -128 -66 -258 -30 -211 -68 -247 -355 -338 -63 -20 -137 -41 -165 -46 -27 -5 -68 -13 -90 -18 -110 -25 -155 -34 -215 -45 -87 -15 -85 -33 5 -66 91 -34 141 -58 190 -90 22 -14 59 -32 83 -39 38 -11 272 -127 400 -197 83 -47 137 -77 184 -105 27 -16 51 -29 53 -29 2 0 36 -19 77 -43 99 -57 110 -62 214 -97 194 -64 459 -61 586 5 81 42 103 60 165 138 161 199 169 280 29 307 -35 6 -77 9 -93 6 -15 -3 -89 -11 -163 -17 -74 -6 -153 -17 -175 -25 -61 -21 -90 -18 -110 12 -15 23 -15 27 -1 49 19 29 112 59 236 75 257 34 339 51 510 105 41 13 116 29 165 35 137 17 212 38 298 82 209 109 296 341 164 440 -46 35 -74 40 -233 39 -154 -1 -334 -20 -435 -46 -93 -24 -224 -82 -297 -132 -88 -60 -149 -93 -172 -93 -24 0 -52 49 -40 71 8 13 90 71 190 135 167 106 411 162 735 169 83 2 163 4 178 4 21 1 44 17 87 59 62 62 74 89 86 194 6 54 5 59 -23 86 -62 63 -236 67 -412 11 -102 -33 -429 -157 -446 -169 -5 -4 -54 -26 -107 -50 -104 -45 -138 -47 -158 -10 -24 44 18 71 280 180 41 17 86 36 100 42 14 6 34 14 45 19 41 17 143 52 220 75 44 14 103 32 130 40 71 23 197 30 247 13 51 -17 72 -4 76 46 4 51 -15 93 -50 111 -47 24 -209 71 -273 79 -75 10 -255 12 -320 4z"/>
 <path d="M4525 3580 c-66 -10 -165 -30 -220 -44 -55 -14 -101 -26 -102 -26 -10 0 0 -32 16 -51 l19 -23 88 17 c148 28 168 29 306 17 300 -25 458 -56 528 -105 29 -20 46 -26 65 -21 l26 7 -23 28 c-24 30 -76 68 -118 87 -32 15 -184 66 -275 94 -56 16 -190 44 -190 39 0 -1 -54 -9 -120 -19z"/>
 <path d="M4410 3360 c-41 -3 -89 -14 -106 -22 -28 -15 -84 -83 -84 -102 0 -11 37 -4 140 27 97 29 165 42 300 57 52 6 99 15 103 19 16 16 -239 31 -353 21z"/>
 <path d="M4945 3244 c-279 -20 -489 -55 -626 -105 -59 -22 -123 -39 -142 -39 -31 0 -42 -8 -88 -60 -90 -103 -175 -156 -308 -190 -71 -18 -105 -20 -235 -17 -83 2 -160 6 -171 8 -18 4 -20 -1 -20 -51 1 -158 42 -351 104 -484 17 -37 37 -82 60 -141 69 -170 136 -402 205 -705 42 -189 48 -238 47 -402 0 -173 5 -204 44 -250 78 -93 222 -158 348 -158 166 0 305 56 461 187 48 40 63 41 109 4 20 -15 68 -38 107 -51 61 -20 84 -22 178 -17 120 5 192 26 347 101 182 87 279 161 538 410 186 179 355 314 489 388 96 53 241 114 308 129 60 14 70 24 70 73 0 37 -30 146 -59 211 -69 162 -136 256 -307 434 -71 74 -158 166 -194 205 -169 186 -253 251 -404 316 -52 22 -98 40 -102 40 -4 0 -25 9 -48 19 -57 26 -184 76 -226 89 -127 37 -361 65 -485 56z m356 -235 c126 -19 250 -66 301 -114 58 -54 85 -150 52 -187 -23 -25 -72 -47 -133 -58 -302 -54 -339 -62 -446 -90 -44 -12 -98 -25 -120 -30 -22 -5 -80 -18 -129 -30 -49 -11 -171 -37 -270 -56 -100 -19 -212 -43 -251 -52 l-70 -18 0 -40 c0 -85 -47 -95 -140 -30 -34 24 -84 51 -111 61 -27 10 -57 25 -66 33 -44 37 -2 107 58 100 43 -5 55 8 82 89 27 83 83 165 140 206 94 66 533 204 702 220 94 8 336 6 401 -4z m64 -493 c71 -18 90 -31 105 -66 13 -31 10 -42 -51 -175 -22 -48 -44 -135 -59 -229 -14 -89 -24 -106 -60 -106 -35 0 -61 32 -55 69 23 148 41 226 66 289 44 110 41 116 -54 122 -63 4 -82 9 -93 24 -18 26 -18 45 3 68 20 22 122 25 198 4z m658 -383 c52 -36 87 -93 94 -152 7 -62 -6 -85 -62 -106 -42 -17 -48 -17 -90 -1 -49 19 -97 68 -120 124 -15 33 -14 41 1 80 30 80 107 104 177 55z m-1458 -265 c48 -41 95 -124 95 -166 0 -50 -47 -94 -94 -88 -65 9 -134 55 -162 108 -21 40 -18 131 4 150 45 40 110 38 157 -4z m1769 -87 c25 -28 14 -52 -51 -110 -100 -89 -280 -161 -403 -161 -44 0 -66 25 -55 60 8 27 26 35 120 55 107 23 188 62 260 124 65 56 100 64 129 32z m-1874 -387 c95 -55 180 -71 276 -55 63 11 69 11 88 -8 16 -17 18 -26 10 -48 -14 -42 -67 -55 -194 -51 -97 3 -111 7 -180 40 -76 37 -130 78 -130 98 0 54 59 65 130 24z"/>
 <path d="M4916 2903 c-162 -20 -299 -55 -481 -121 -124 -45 -181 -72 -203 -95 -51 -56 -115 -227 -85 -227 5 0 45 9 89 21 107 28 172 43 354 79 209 42 294 61 505 113 99 25 237 55 307 67 70 13 132 26 139 30 19 13 0 46 -39 67 -119 66 -361 93 -586 66z"/>
 <path d="M10715 2050 c-223 -30 -307 -40 -355 -44 -187 -15 -325 -105 -400 -261 -62 -129 -78 -182 -187 -635 -33 -137 -34 -213 -3 -290 46 -117 79 -139 263 -177 67 -14 140 -29 162 -34 22 -5 56 -12 75 -15 19 -3 46 -9 60 -14 14 -4 59 -18 100 -30 77 -23 93 -28 145 -50 126 -51 294 -97 375 -102 l45 -3 3 41 c3 40 3 40 -55 67 -33 15 -62 27 -66 27 -4 0 -35 13 -70 29 -75 36 -203 91 -211 91 -3 0 -35 13 -70 30 -77 35 -95 60 -71 97 15 22 21 24 53 18 21 -4 41 -11 46 -16 6 -5 15 -9 22 -9 7 0 46 -16 87 -35 41 -19 78 -35 81 -35 3 0 54 -20 112 -45 153 -66 144 -71 144 88 l-1 132 -166 55 c-91 30 -174 61 -184 68 -36 25 -14 92 29 92 9 0 79 -21 154 -46 75 -26 144 -44 153 -40 13 5 15 33 13 218 l-3 212 -35 8 c-19 4 -61 12 -92 18 -65 13 -88 30 -88 65 0 46 37 52 178 29 l42 -7 0 245 0 246 -28 5 c-55 11 -199 15 -257 7z"/>
 <path d="M6780 1710 c-49 -6 -108 -24 -165 -49 -71 -32 -189 -94 -241 -127 -150 -95 -188 -127 -394 -328 -187 -182 -289 -269 -396 -338 -62 -39 -278 -141 -338 -160 -212 -64 -286 -67 -430 -19 -123 42 -162 39 -232 -14 -61 -47 -126 -76 -232 -105 -72 -19 -99 -22 -205 -17 -138 6 -199 23 -290 81 -89 57 -84 61 -89 -56 -6 -114 -24 -190 -99 -412 -30 -87 -47 -152 -42 -157 6 -6 491 -8 1154 -7 l1144 3 85 44 c138 71 255 168 343 284 62 82 124 252 141 387 7 54 19 109 39 185 16 63 110 229 186 330 125 166 301 308 444 358 9 4 17 15 17 26 0 14 -18 28 -67 51 -97 46 -195 58 -333 40z"/>
 </g>

</svg>